<svg width="12" height="13" viewBox="0 0 12 13" fill="none" xmlns="http://www.w3.org/2000/svg">
<path id="Vector - 1" fill-rule="evenodd" clip-rule="evenodd" d="M1.48283 3.1173C1.49163 3.14237 1.5401 3.24867 1.793 3.41203C2.09933 3.60993 2.58307 3.80483 3.2239 3.95783C4.00023 4.1432 4.95707 4.25517 6 4.25517C7.04293 4.25517 7.99977 4.1432 8.7761 3.95783C9.41693 3.80483 9.90067 3.60993 10.207 3.41203C10.4599 3.24867 10.5084 3.14237 10.5172 3.1173C10.5096 3.09587 10.4778 3.03243 10.3545 2.93103C10.1755 2.78387 9.87627 2.62157 9.44767 2.4725C8.59667 2.1765 7.37777 1.98123 6 1.98123C4.62223 1.98123 3.4033 2.1765 2.55233 2.4725C2.12373 2.62157 1.82447 2.78387 1.6455 2.93103C1.52223 3.03243 1.49043 3.09587 1.48283 3.1173V3.1173ZM10.5188 4.76257C10.1059 4.96417 9.61673 5.12797 9.0857 5.25473C8.19453 5.4675 7.13243 5.5885 6 5.5885C4.86757 5.5885 3.80547 5.4675 2.9143 5.25473C2.38327 5.12797 1.89413 4.96417 1.4812 4.76257V9.87583C1.48383 9.88483 1.51423 9.99557 1.793 10.1757C2.09933 10.3736 2.58307 10.5685 3.2239 10.7215C4.00023 10.9068 4.95707 11.0188 6 11.0188C7.04293 11.0188 7.99977 10.9068 8.7761 10.7215C9.41693 10.5685 9.90067 10.3736 10.207 10.1757C10.4858 9.99557 10.5162 9.88487 10.5188 9.87583V4.76257V4.76257ZM11.8521 3.1182V9.88183C11.8521 10.5359 11.386 11.0014 10.9305 11.2956C10.4499 11.6061 9.8064 11.8463 9.0857 12.0184C8.19453 12.2311 7.13243 12.3521 6 12.3521C4.86757 12.3521 3.80547 12.2311 2.9143 12.0184C2.1936 11.8463 1.55007 11.6061 1.06949 11.2956C0.614017 11.0014 0.147883 10.5359 0.147883 9.88183V3.1182C0.147883 2.58947 0.45741 2.1818 0.798603 1.9012C1.14442 1.61683 1.60457 1.39047 2.11433 1.21316C3.1401 0.856363 4.51393 0.647887 6 0.647887C7.48607 0.647887 8.8599 0.856363 9.88567 1.21316C10.3954 1.39047 10.8556 1.61683 11.2014 1.9012C11.5426 2.1818 11.8521 2.58947 11.8521 3.1182V3.1182Z" fill="white"/>
</svg>
