<svg width="12" height="13" viewBox="0 0 12 13" fill="none" xmlns="http://www.w3.org/2000/svg">
<path fill-rule="evenodd" clip-rule="evenodd" d="M11.1854 9.88183V3.1182C11.1854 3.736 10.2924 4.28123 8.9309 4.6063C8.09714 4.80533 7.08767 4.92183 6 4.92183C4.91234 4.92183 3.90287 4.80533 3.0691 4.6063C1.70757 4.28123 0.814555 3.736 0.814555 3.1182V9.88183C0.814555 10.4996 1.70757 11.0449 3.0691 11.3699C3.90287 11.569 4.91234 11.6855 6 11.6855C7.08767 11.6855 8.09714 11.569 8.9309 11.3699C10.2924 11.0449 11.1854 10.4996 11.1854 9.88183V9.88183ZM1.48284 3.1173C1.49164 3.14237 1.5401 3.24867 1.793 3.41203C2.09934 3.60993 2.58307 3.80483 3.2239 3.95783C4.00024 4.1432 4.95707 4.25517 6 4.25517C7.04294 4.25517 7.99977 4.1432 8.7761 3.95783C9.41694 3.80483 9.90067 3.60993 10.207 3.41203C10.4599 3.24867 10.5084 3.14237 10.5172 3.1173C10.5096 3.09587 10.4778 3.03243 10.3545 2.93103C10.1755 2.78387 9.87627 2.62157 9.44767 2.4725C8.59667 2.1765 7.37777 1.98123 6 1.98123C4.62224 1.98123 3.40331 2.1765 2.55234 2.4725C2.12374 2.62157 1.82447 2.78387 1.6455 2.93103C1.52224 3.03243 1.49044 3.09587 1.48284 3.1173ZM10.5188 4.76257C10.1059 4.96417 9.61674 5.12797 9.0857 5.25473C8.19454 5.4675 7.13244 5.5885 6 5.5885C4.86757 5.5885 3.80547 5.4675 2.9143 5.25473C2.38327 5.12797 1.89414 4.96417 1.4812 4.76257V9.87583C1.48384 9.88483 1.51424 9.99557 1.793 10.1757C2.09934 10.3736 2.58307 10.5685 3.2239 10.7215C4.00024 10.9068 4.95707 11.0188 6 11.0188C7.04294 11.0188 7.99977 10.9068 8.7761 10.7215C9.41694 10.5685 9.90067 10.3736 10.207 10.1757C10.4858 9.99557 10.5162 9.88487 10.5188 9.87583V4.76257ZM11.8521 3.1182V9.88183C11.8521 10.5359 11.386 11.0014 10.9305 11.2956C10.4499 11.6061 9.80641 11.8463 9.0857 12.0184C8.19454 12.2311 7.13244 12.3521 6 12.3521C4.86757 12.3521 3.80547 12.2311 2.9143 12.0184C2.1936 11.8463 1.55007 11.6061 1.0695 11.2956C0.614021 11.0014 0.147888 10.5359 0.147888 9.88183V3.1182C0.147888 2.58947 0.457415 2.1818 0.798608 1.9012C1.14442 1.61683 1.60457 1.39047 2.11434 1.21316C3.1401 0.856365 4.51394 0.647888 6 0.647888C7.48607 0.647888 8.85991 0.856365 9.88567 1.21316C10.3954 1.39047 10.8556 1.61683 11.2014 1.9012C11.5426 2.1818 11.8521 2.58947 11.8521 3.1182Z" fill="white"/>
</svg>
