<svg width="12" height="16" viewBox="0 0 12 16" fill="none" xmlns="http://www.w3.org/2000/svg">
<path fill-rule="evenodd" clip-rule="evenodd" d="M10.375 0H1.625C0.934644 0 0.375 0.559644 0.375 1.25V15C0.375113 15.2271 0.498456 15.4364 0.697156 15.5464C0.895856 15.6565 1.13863 15.6501 1.33125 15.5297L6 12.6117L10.6695 15.5297C10.8621 15.6497 11.1046 15.6558 11.303 15.5458C11.5015 15.4358 11.6247 15.2269 11.625 15V1.25C11.625 0.559644 11.0654 0 10.375 0ZM10.375 13.8727L6.33047 11.3453C6.1278 11.2186 5.87064 11.2186 5.66797 11.3453L1.625 13.8727V1.25H10.375V13.8727Z" fill="white"/>
</svg>
